<svg height="74" viewBox="0 0 699 74" width="699" xmlns="http://www.w3.org/2000/svg">
<g class="text">
<path d="M 30.899328 47.731544L 30.899328 50.14765L 8.18792 50.14765Q 8.510067 55.24832 11.261745 57.919464Q 14.013423 60.590603 18.926174 60.590603Q 21.771812 60.590603 24.442953 59.892616Q 27.114094 59.19463 29.744967 57.798656L 29.744967 62.4698Q 27.087248 63.597317 24.295301 64.18792Q 21.503355 64.77853 18.630873 64.77853Q 11.436242 64.77853 7.2348995 60.590603Q 3.0335572 56.402683 3.0335572 49.261745Q 3.0335572 41.879196 7.0201344 37.543625Q 11.006711 33.208054 17.771812 33.208054Q 23.838926 33.208054 27.369127 37.114094Q 30.899328 41.020134 30.899328 47.731544Z M 25.959732 46.28188Q 25.90604 42.228188 23.691275 39.81208Q 21.476511 37.395973 17.825504 37.395973Q 13.691276 37.395973 11.208054 39.731544Q 8.724833 42.067116 8.348993 46.308723L 25.959732 46.28188Z M 56.42953 38.550335Q 55.597317 38.067116 54.61745 37.83893Q 53.637585 37.61074 52.456375 37.61074Q 48.268456 37.61074 46.026848 40.33557Q 43.785236 43.060402 43.785236 48.16107L 43.785236 64L 38.818794 64L 38.818794 33.932884L 43.785236 33.932884L 43.785236 38.604027Q 45.342285 35.865772 47.83893 34.53691Q 50.33557 33.208054 53.906044 33.208054Q 54.416107 33.208054 55.033558 33.27517Q 55.65101 33.34228 56.402687 33.47651L 56.42953 38.550335Z M 61.61074 33.932884L 66.55034 33.932884L 66.55034 64L 61.61074 64L 61.61074 33.932884Z M 61.61074 22.228188L 66.55034 22.228188L 66.55034 28.483223L 61.61074 28.483223L 61.61074 22.228188Z M 98.52349 35.08725L 98.52349 39.704697Q 96.42953 38.550335 94.32214 37.973152Q 92.21477 37.395973 90.06711 37.395973Q 85.26174 37.395973 82.60403 40.442955Q 79.946304 43.489933 79.946304 48.99329Q 79.946304 54.496643 82.60403 57.543625Q 85.26174 60.590603 90.06711 60.590603Q 92.21477 60.590603 94.32214 60.013424Q 96.42953 59.43624 98.52349 58.28188L 98.52349 62.84564Q 96.456375 63.81208 94.24161 64.2953Q 92.02684 64.77853 89.5302 64.77853Q 82.73825 64.77853 78.73825 60.510067Q 74.73825 56.24161 74.73825 48.99329Q 74.73825 41.637585 78.77852 37.42282Q 82.81879 33.208054 89.85235 33.208054Q 92.13423 33.208054 94.30872 33.677853Q 96.48322 34.14765 98.52349 35.08725Z M 107.81208 57.18121L 113.47651 57.18121L 113.47651 64L 107.81208 64L 107.81208 57.18121Z M 146.1745 48.99329Q 146.1745 43.543625 143.93289 40.442955Q 141.69127 37.34228 137.7718 37.34228Q 133.85234 37.34228 131.61073 40.442955Q 129.36913 43.543625 129.36913 48.99329Q 129.36913 54.442955 131.61073 57.543625Q 133.85234 60.644295 137.7718 60.644295Q 141.69127 60.644295 143.93289 57.543625Q 146.1745 54.442955 146.1745 48.99329Z M 129.36913 38.496643Q 130.92618 35.81208 133.30202 34.510067Q 135.67786 33.208054 138.97986 33.208054Q 144.45638 33.208054 147.8792 37.557045Q 151.30202 41.90604 151.30202 48.99329Q 151.30202 56.080536 147.8792 60.42953Q 144.45638 64.77853 138.97986 64.77853Q 135.67786 64.77853 133.30202 63.47651Q 130.92618 62.174496 129.36913 59.489933L 129.36913 64L 124.40268 64L 124.40268 22.228188L 129.36913 22.228188L 129.36913 38.496643Z M 185.20804 47.731544L 185.20804 50.14765L 162.49664 50.14765Q 162.81879 55.24832 165.57047 57.919464Q 168.32214 60.590603 173.2349 60.590603Q 176.08054 60.590603 178.75166 59.892616Q 181.4228 59.19463 184.05368 57.798656L 184.05368 62.4698Q 181.39597 63.597317 178.60402 64.18792Q 175.81207 64.77853 172.93959 64.77853Q 165.74496 64.77853 161.54361 60.590603Q 157.34227 56.402683 157.34227 49.261745Q 157.34227 41.879196 161.32886 37.543625Q 165.31543 33.208054 172.08054 33.208054Q 178.14764 33.208054 181.67784 37.114094Q 185.20804 41.020134 185.20804 47.731544Z M 180.26845 46.28188Q 180.21475 42.228188 177.99998 39.81208Q 175.78523 37.395973 172.13422 37.395973Q 167.99998 37.395973 165.51677 39.731544Q 163.03355 42.067116 162.65771 46.308723L 180.26845 46.28188Z M 214.953 35.08725L 214.953 39.704697Q 212.85905 38.550335 210.75166 37.973152Q 208.64429 37.395973 206.49663 37.395973Q 201.69127 37.395973 199.03354 40.442955Q 196.37582 43.489933 196.37582 48.99329Q 196.37582 54.496643 199.03354 57.543625Q 201.69127 60.590603 206.49663 60.590603Q 208.64429 60.590603 210.75166 60.013424Q 212.85905 59.43624 214.953 58.28188L 214.953 62.84564Q 212.8859 63.81208 210.67113 64.2953Q 208.45636 64.77853 205.95972 64.77853Q 199.16777 64.77853 195.16777 60.510067Q 191.16777 56.24161 191.16777 48.99329Q 191.16777 41.637585 195.20804 37.42282Q 199.2483 33.208054 206.28186 33.208054Q 208.56375 33.208054 210.73825 33.677853Q 212.91273 34.14765 214.953 35.08725Z M 223.35568 22.228188L 228.32213 22.228188L 228.32213 46.89933L 243.06038 33.932884L 249.36911 33.932884L 233.4228 48L 250.04025 64L 243.59729 64L 228.32213 49.315437L 228.32213 64L 223.35568 64L 223.35568 22.228188Z M 279.14093 47.731544L 279.14093 50.14765L 256.4295 50.14765Q 256.75165 55.24832 259.50333 57.919464Q 262.255 60.590603 267.16776 60.590603Q 270.0134 60.590603 272.68454 59.892616Q 275.35568 59.19463 277.98657 57.798656L 277.98657 62.4698Q 275.32883 63.597317 272.5369 64.18792Q 269.74493 64.77853 266.87247 64.77853Q 259.67783 64.77853 255.47649 60.590603Q 251.27515 56.402683 251.27515 49.261745Q 251.27515 41.879196 255.26173 37.543625Q 259.2483 33.208054 266.0134 33.208054Q 272.0805 33.208054 275.61072 37.114094Q 279.14093 41.020134 279.14093 47.731544Z M 274.20132 46.28188Q 274.14764 42.228188 271.93286 39.81208Q 269.7181 37.395973 266.0671 37.395973Q 261.93286 37.395973 259.44965 39.731544Q 256.96643 42.067116 256.59058 46.308723L 274.20132 46.28188Z M 304.67114 38.550335Q 303.83893 38.067116 302.85907 37.83893Q 301.87918 37.61074 300.69797 37.61074Q 296.51007 37.61074 294.26846 40.33557Q 292.02686 43.060402 292.02686 48.16107L 292.02686 64L 287.0604 64L 287.0604 33.932884L 292.02686 33.932884L 292.02686 38.604027Q 293.5839 35.865772 296.08054 34.53691Q 298.57718 33.208054 302.14764 33.208054Q 302.6577 33.208054 303.27515 33.27517Q 303.8926 33.34228 304.6443 33.47651L 304.67114 38.550335Z M 325.1275 49.583893Q 325.1275 53.42282 327.03357 55.610737Q 328.9396 57.798656 332.26846 57.798656Q 335.57047 57.798656 337.46307 55.597317Q 339.3557 53.395973 339.3557 49.583893Q 339.3557 45.8255 337.42282 43.61074Q 335.48993 41.395973 332.21478 41.395973Q 328.96643 41.395973 327.047 43.597313Q 325.1275 45.79866 325.1275 49.583893Z M 339.7584 57.610737Q 338.14764 59.677853 336.0671 60.65772Q 333.98657 61.637585 331.22147 61.637585Q 326.60403 61.637585 323.7181 58.295303Q 320.8322 54.95302 320.8322 49.583893Q 320.8322 44.214767 323.73154 40.859062Q 326.63086 37.503357 331.22147 37.503357Q 333.98657 37.503357 336.08054 38.510067Q 338.1745 39.516777 339.7584 41.557045L 339.7584 38.040268L 343.59732 38.040268L 343.59732 57.798656Q 347.51678 57.208054 349.73154 54.214764Q 351.94632 51.221478 351.94632 46.4698Q 351.94632 43.597313 351.10068 41.073826Q 350.25504 38.550335 348.53693 36.402687Q 345.74496 32.885906 341.73154 31.020134Q 337.71814 29.154362 332.9933 29.154362Q 329.69128 29.154362 326.6577 30.026844Q 323.62418 30.89933 321.047 32.617447Q 316.8322 35.355705 314.4564 39.79866Q 312.08054 44.24161 312.08054 49.42282Q 312.08054 53.691277 313.62418 57.422817Q 315.1678 61.15436 318.09396 64Q 320.91275 66.79195 324.61746 68.255035Q 328.32214 69.718124 332.53693 69.718124Q 336 69.718124 339.3423 68.55034Q 342.68457 67.38255 345.4765 65.20805L 347.8926 68.18792Q 344.53693 70.79195 340.57718 72.1745Q 336.61746 73.557045 332.53693 73.557045Q 327.57047 73.557045 323.1678 71.79866Q 318.7651 70.04027 315.32886 66.68456Q 311.8926 63.328857 310.09396 58.91275Q 308.29532 54.496643 308.29532 49.42282Q 308.29532 44.53691 310.12082 40.107384Q 311.94632 35.677853 315.32886 32.322147Q 318.79196 28.91275 323.32886 27.10067Q 327.86578 25.28859 332.9396 25.28859Q 338.63086 25.28859 343.50336 27.62416Q 348.37585 29.959732 351.67786 34.255035Q 353.69128 36.885906 354.75168 39.973152Q 355.81207 43.060402 355.81207 46.362415Q 355.81207 53.42282 351.54364 57.503357Q 347.27518 61.583893 339.7584 61.744965L 339.7584 57.610737Z M 364.32214 52.134228L 364.32214 33.932884L 369.26175 33.932884L 369.26175 51.94631Q 369.26175 56.214764 370.92618 58.34899Q 372.5906 60.483223 375.91946 60.483223Q 379.91946 60.483223 382.2416 57.932884Q 384.56375 55.38255 384.56375 50.979866L 384.56375 33.932884L 389.50336 33.932884L 389.50336 64L 384.56375 64L 384.56375 59.38255Q 382.7651 62.120804 380.38925 63.449665Q 378.01343 64.77853 374.87247 64.77853Q 369.69128 64.77853 367.0067 61.557045Q 364.32214 58.33557 364.32214 52.134228Z M 376.75168 33.208054L 376.75168 33.208054Z M 404.56375 25.395973L 404.56375 33.932884L 414.73825 33.932884L 414.73825 37.771812L 404.56375 37.771812L 404.56375 54.09396Q 404.56375 57.771812 405.57047 58.81879Q 406.57718 59.865772 409.66443 59.865772L 414.73825 59.865772L 414.73825 64L 409.66443 64Q 403.94632 64 401.77182 61.865772Q 399.59732 59.731544 399.59732 54.09396L 399.59732 37.771812L 395.97314 37.771812L 395.97314 33.932884L 399.59732 33.932884L 399.59732 25.395973L 404.56375 25.395973Z M 441.0201 38.496643L 441.0201 22.228188L 445.95972 22.228188L 445.95972 64L 441.0201 64L 441.0201 59.489933Q 439.46307 62.174496 437.08725 63.47651Q 434.7114 64.77853 431.38254 64.77853Q 425.93286 64.77853 422.51007 60.42953Q 419.08725 56.080536 419.08725 48.99329Q 419.08725 41.90604 422.51007 37.557045Q 425.93286 33.208054 431.38254 33.208054Q 434.7114 33.208054 437.08725 34.510067Q 439.46307 35.81208 441.0201 38.496643Z M 424.1879 48.99329Q 424.1879 54.442955 426.4295 57.543625Q 428.67114 60.644295 432.5906 60.644295Q 436.51007 60.644295 438.76508 57.543625Q 441.0201 54.442955 441.0201 48.99329Q 441.0201 43.543625 438.76508 40.442955Q 436.51007 37.34228 432.5906 37.34228Q 428.67114 37.34228 426.4295 40.442955Q 424.1879 43.543625 424.1879 48.99329Z M 469.79865 48.885906Q 463.81207 48.885906 461.50333 50.255035Q 459.1946 51.62416 459.1946 54.926174Q 459.1946 57.557045 460.92615 59.10067Q 462.6577 60.644295 465.63757 60.644295Q 469.74493 60.644295 472.22818 57.731544Q 474.7114 54.818794 474.7114 49.986576L 474.7114 48.885906L 469.79865 48.885906Z M 479.651 46.84564L 479.651 64L 474.7114 64L 474.7114 59.43624Q 473.0201 62.174496 470.49664 63.47651Q 467.97314 64.77853 464.32214 64.77853Q 459.70468 64.77853 456.97986 62.18792Q 454.255 59.597317 454.255 55.24832Q 454.255 50.174496 457.651 47.597313Q 461.04697 45.020134 467.78522 45.020134L 474.7114 45.020134L 474.7114 44.53691Q 474.7114 41.127518 472.4698 39.261745Q 470.22818 37.395973 466.17447 37.395973Q 463.5973 37.395973 461.15436 38.01342Q 458.7114 38.630875 456.45636 39.865772L 456.45636 35.302013Q 459.16776 34.255035 461.7181 33.731544Q 464.26843 33.208054 466.68454 33.208054Q 473.20804 33.208054 476.4295 36.590607Q 479.651 39.973152 479.651 46.84564Z M 489.8255 22.228188L 494.7651 22.228188L 494.7651 64L 489.8255 64L 489.8255 22.228188Z M 505.10068 22.228188L 510.04028 22.228188L 510.04028 64L 505.10068 64L 505.10068 22.228188Z M 534.0403 48.885906Q 528.0537 48.885906 525.745 50.255035Q 523.4363 51.62416 523.4363 54.926174Q 523.4363 57.557045 525.1678 59.10067Q 526.89935 60.644295 529.8792 60.644295Q 533.9866 60.644295 536.4698 57.731544Q 538.953 54.818794 538.953 49.986576L 538.953 48.885906L 534.0403 48.885906Z M 543.89264 46.84564L 543.89264 64L 538.953 64L 538.953 59.43624Q 537.2618 62.174496 534.7383 63.47651Q 532.2148 64.77853 528.5638 64.77853Q 523.9463 64.77853 521.2215 62.18792Q 518.49664 59.597317 518.49664 55.24832Q 518.49664 50.174496 521.89264 47.597313Q 525.2886 45.020134 532.02686 45.020134L 538.953 45.020134L 538.953 44.53691Q 538.953 41.127518 536.7114 39.261745Q 534.4698 37.395973 530.41614 37.395973Q 527.8389 37.395973 525.396 38.01342Q 522.953 38.630875 520.698 39.865772L 520.698 35.302013Q 523.4094 34.255035 525.9597 33.731544Q 528.5101 33.208054 530.9262 33.208054Q 537.44965 33.208054 540.67114 36.590607Q 543.89264 39.973152 543.89264 46.84564Z M 573.2349 34.818794L 573.2349 39.489933Q 571.1409 38.416107 568.8859 37.879196Q 566.6309 37.34228 564.2148 37.34228Q 560.5369 37.34228 558.698 38.4698Q 556.8591 39.597313 556.8591 41.85235Q 556.8591 43.57047 558.1745 44.550335Q 559.4899 45.5302 563.46313 46.416107L 565.15436 46.791946Q 570.41614 47.919464 572.6309 49.973152Q 574.84564 52.026848 574.84564 55.704697Q 574.84564 59.892616 571.5302 62.33557Q 568.2148 64.77853 562.41614 64.77853Q 560 64.77853 557.38257 64.30872Q 554.76514 63.838924 551.8658 62.89933L 551.8658 57.798656Q 554.60406 59.221478 557.2618 59.932884Q 559.9195 60.644295 562.5235 60.644295Q 566.0134 60.644295 567.89264 59.449665Q 569.77185 58.255035 569.77185 56.080536Q 569.77185 54.067116 568.41614 52.99329Q 567.0604 51.919464 562.46985 50.926174L 560.7517 50.52349Q 556.1611 49.557045 554.12085 47.557045Q 552.08057 45.557045 552.08057 42.067116Q 552.08057 37.8255 555.0873 35.516777Q 558.094 33.208054 563.6242 33.208054Q 566.3624 33.208054 568.77856 33.61074Q 571.19464 34.01342 573.2349 34.818794Z M 583.4094 57.18121L 589.07385 57.18121L 589.07385 64L 583.4094 64L 583.4094 57.18121Z M 625.90607 47.731544L 625.90607 50.14765L 603.19464 50.14765Q 603.5168 55.24832 606.26843 57.919464Q 609.02014 60.590603 613.93286 60.590603Q 616.7785 60.590603 619.44965 59.892616Q 622.1208 59.19463 624.7517 57.798656L 624.7517 62.4698Q 622.09393 63.597317 619.302 64.18792Q 616.5101 64.77853 613.6376 64.77853Q 606.44293 64.77853 602.24164 60.590603Q 598.0403 56.402683 598.0403 49.261745Q 598.0403 41.879196 602.02686 37.543625Q 606.0134 33.208054 612.7785 33.208054Q 618.84564 33.208054 622.37585 37.114094Q 625.90607 41.020134 625.90607 47.731544Z M 620.96643 46.28188Q 620.9128 42.228188 618.698 39.81208Q 616.4832 37.395973 612.8322 37.395973Q 608.698 37.395973 606.2148 39.731544Q 603.73157 42.067116 603.3557 46.308723L 620.96643 46.28188Z M 653.79865 38.496643L 653.79865 22.228188L 658.7383 22.228188L 658.7383 64L 653.79865 64L 653.79865 59.489933Q 652.24164 62.174496 649.8658 63.47651Q 647.4899 64.77853 644.1611 64.77853Q 638.7114 64.77853 635.2886 60.42953Q 631.8658 56.080536 631.8658 48.99329Q 631.8658 41.90604 635.2886 37.557045Q 638.7114 33.208054 644.1611 33.208054Q 647.4899 33.208054 649.8658 34.510067Q 652.24164 35.81208 653.79865 38.496643Z M 636.96643 48.99329Q 636.96643 54.442955 639.20807 57.543625Q 641.44965 60.644295 645.36914 60.644295Q 649.2886 60.644295 651.54364 57.543625Q 653.79865 54.442955 653.79865 48.99329Q 653.79865 43.543625 651.54364 40.442955Q 649.2886 37.34228 645.36914 37.34228Q 641.44965 37.34228 639.20807 40.442955Q 636.96643 43.543625 636.96643 48.99329Z M 668.4027 52.134228L 668.4027 33.932884L 673.3423 33.932884L 673.3423 51.94631Q 673.3423 56.214764 675.0067 58.34899Q 676.67114 60.483223 680 60.483223Q 684 60.483223 686.32214 57.932884Q 688.64435 55.38255 688.64435 50.979866L 688.64435 33.932884L 693.5839 33.932884L 693.5839 64L 688.64435 64L 688.64435 59.38255Q 686.84564 62.120804 684.46985 63.449665Q 682.094 64.77853 678.95306 64.77853Q 673.77185 64.77853 671.0873 61.557045Q 668.4027 58.33557 668.4027 52.134228Z M 680.8322 33.208054L 680.8322 33.208054Z " fill="#000" stroke="#000" stroke-linecap="round" stroke-linejoin="round" stroke-width="1"/>
</g>
</svg>