<?xml version="1.0" encoding="UTF-8" standalone="no"?>
<svg
   viewBox="0 0 28800 2304"
   version="1.1"
   id="svg40"
   width="28800"
   height="2304"
   xmlns="http://www.w3.org/2000/svg"
   xmlns:svg="http://www.w3.org/2000/svg">
  <defs
     id="defs44" />
  <g
     transform="translate(-27,2048)"
     id="g38"
     fill="#222">
    <path
       transform="translate(-320)"
       d="m 1390,-1413 -64,218 q -162,-68 -295,-68 -214,0 -330,123 -116,122 -116,355 V 0 H 347 v -1472 h 194 l 29,291 h 10 q 100,-157 214,-224 114,-67 281,-67 155,0 315,59 z"
       id="path2" />
    <path
       transform="translate(1312)"
       d="M 801,0 Q 517,0 334,-201 151,-402 151,-739 q 0,-340 178,-536 178,-197 480,-197 286,0 468,201 183,200 183,532 0,343 -180,541 Q 1100,0 801,0 m 5,-198 q 407,0 407,-541 0,-535 -409,-535 -406,0 -406,535 0,541 408,541 z"
       id="path4" />
    <path
       transform="translate(2944)"
       d="m 1282,0 v -931 q 0,-193 -35,-268 -34,-75 -116,-75 -114,0 -166,110 -51,109 -51,366 V 0 H 702 v -931 q 0,-343 -164,-343 -110,0 -158,105 -47,104 -47,419 V 0 H 121 v -1472 h 167 l 35,221 h 13 q 88,-221 264,-221 213,0 279,240 h 8 q 100,-240 288,-240 168,0 244,122 76,122 76,406 V 0 Z"
       id="path6" />
    <path
       transform="translate(4576)"
       d="m 1175,0 -49,-221 h -10 Q 1014,-96 908,-48 802,0 634,0 420,0 298,-113 177,-226 177,-430 q 0,-436 670,-457 l 266,-9 v -86 q 0,-292 -320,-292 -193,0 -430,107 l -83,-179 q 257,-126 503,-126 298,0 431,115 133,114 133,367 V 0 h -172 m -65,-732 -213,9 q -257,11 -365,82 -107,71 -107,217 0,236 262,236 193,0 308,-108 115,-108 115,-305 z"
       id="path8" />
    <path
       transform="translate(6208)"
       d="m 1164,0 v -931 q 0,-343 -312,-343 -403,0 -403,524 V 0 H 210 v -1472 h 193 l 35,220 h 13 q 135,-220 441,-220 511,0 511,528 V 0 Z"
       id="path10" />
    <path
       transform="translate(7840)"
       d="m 1049,-492 h -5 q -97,236 -302,236 -158,0 -250,-142 -92,-143 -92,-383 0,-282 127,-454 128,-173 335,-173 180,0 336,64 l -28,571 q -3,52 -3,95 v 10 q 0,241 95,241 131,0 131,-518 0,-376 -146,-590 -145,-214 -392,-214 -297,0 -463,257 -166,256 -166,704 0,417 170,645 170,228 484,228 237,0 454,-111 V 148 Q 1127,256 872,256 481,256 261,-18 41,-292 41,-782 q 0,-525 219,-831 219,-307 597,-307 325,0 520,263 195,263 195,717 0,310 -84,497 -84,187 -233,187 -168,0 -206,-236 m -62,-716 q -71,-29 -135,-29 -117,0 -180,129 -62,129 -62,333 0,348 167,348 172,0 190,-431 z"
       id="path12" />
    <path
       transform="translate(9472)"
       d="m 1210,0 -35,-219 h -13 Q 1024,0 723,0 210,0 210,-528 v -944 h 239 v 931 q 0,343 310,343 211,0 308,-122 97,-122 97,-401 v -751 h 239 V 0 Z"
       id="path14" />
    <path
       transform="translate(11104)"
       d="M 1339,-223 V -42 Q 1168,0 1008,0 533,0 533,-450 v -834 H 182 v -132 l 351,-64 101,-377 h 138 v 385 h 575 v 188 H 772 v 831 q 0,255 252,255 122,0 315,-25 z"
       id="path16" />
    <path
       transform="translate(12736)"
       d="m 1177,-219 h -10 Q 1018,0 744,0 480,0 330,-193 180,-387 180,-733 q 0,-350 151,-544 151,-195 413,-195 271,0 423,210 h 16 q -16,-170 -16,-213 v -573 h 239 V 0 h -193 l -36,-219 m -10,-462 v -52 q 0,-293 -91,-417 -91,-124 -291,-124 -357,0 -357,543 0,533 360,533 199,0 286,-114 88,-114 93,-369 z"
       id="path18" />
    <path
       transform="translate(14368)"
       d="m 1175,0 -49,-221 h -10 Q 1014,-96 908,-48 802,0 634,0 420,0 298,-113 177,-226 177,-430 q 0,-436 670,-457 l 266,-9 v -86 q 0,-292 -320,-292 -193,0 -430,107 l -83,-179 q 257,-126 503,-126 298,0 431,115 133,114 133,367 V 0 h -172 m -65,-732 -213,9 q -257,11 -365,82 -107,71 -107,217 0,236 262,236 193,0 308,-108 115,-108 115,-305 z"
       id="path20" />
    <path
       transform="translate(16000)"
       d="m 698,-1860 -351,-28 v -160 h 591 v 1860 l 462,26 V 0 H 247 v -162 l 451,-26 z"
       id="path22" />
    <path
       transform="translate(17632)"
       d="m 698,-1860 -351,-28 v -160 h 591 v 1860 l 462,26 V 0 H 247 v -162 l 451,-26 z"
       id="path24" />
    <path
       transform="translate(19264)"
       d="m 1175,0 -49,-221 h -10 Q 1014,-96 908,-48 802,0 634,0 420,0 298,-113 177,-226 177,-430 q 0,-436 670,-457 l 266,-9 v -86 q 0,-292 -320,-292 -193,0 -430,107 l -83,-179 q 257,-126 503,-126 298,0 431,115 133,114 133,367 V 0 h -172 m -65,-732 -213,9 q -257,11 -365,82 -107,71 -107,217 0,236 262,236 193,0 308,-108 115,-108 115,-305 z"
       id="path26" />
    <path
       transform="translate(20896)"
       d="m 266,-90 v -218 q 253,110 486,110 361,0 361,-204 0,-74 -65,-128 -64,-54 -296,-137 -306,-113 -386,-206 -79,-94 -79,-222 0,-176 146,-276 147,-101 405,-101 260,0 485,97 l -79,195 q -239,-94 -418,-94 -310,0 -310,169 0,79 66,126 67,47 306,131 277,100 368,197 91,96 91,236 0,194 -154,305 Q 1040,0 759,0 433,0 266,-90 Z"
       id="path28" />
    <path
       transform="translate(22528)"
       d="m 806,-384 q 199,0 199,224 0,224 -199,224 -198,0 -198,-224 0,-224 198,-224 z"
       id="path30" />
    <path
       transform="translate(24160)"
       d="M 1439,-698 H 423 q 10,489 451,489 256,0 486,-99 V -98 Q 1142,0 882,0 561,0 368,-193 175,-387 175,-726 q 0,-344 178,-545 178,-201 476,-201 278,0 444,172 166,171 166,457 v 145 M 428,-896 h 752 q 0,-378 -357,-378 -361,0 -395,378 z"
       id="path32" />
    <path
       transform="translate(25792)"
       d="m 1177,-219 h -10 Q 1018,0 744,0 480,0 330,-193 180,-387 180,-733 q 0,-350 151,-544 151,-195 413,-195 271,0 423,210 h 16 q -16,-170 -16,-213 v -573 h 239 V 0 h -193 l -36,-219 m -10,-462 v -52 q 0,-293 -91,-417 -91,-124 -291,-124 -357,0 -357,543 0,533 360,533 199,0 286,-114 88,-114 93,-369 z"
       id="path34" />
    <path
       transform="translate(27424)"
       d="m 1210,0 -35,-219 h -13 Q 1024,0 723,0 210,0 210,-528 v -944 h 239 v 931 q 0,343 310,343 211,0 308,-122 97,-122 97,-401 v -751 h 239 V 0 Z"
       id="path36" />
  </g>
</svg>
