<svg xmlns="http://www.w3.org/2000/svg" xmlns:xlink="http://www.w3.org/1999/xlink" viewBox="0 0 28832 3264">
<g transform="matrix(1,0,0,1,0,2496)">
  <path transform="matrix(1,0,0,1,-320,0)" d="M 1390 -1413 L 1326 -1195 Q 1164 -1263 1031 -1263 Q 817 -1263 701 -1140 Q 585 -1018 585 -785 L 585 0 L 347 0 L 347 -1472 L 541 -1472 L 570 -1181 L 580 -1181 Q 680 -1338 794 -1405 Q 908 -1472 1075 -1472 Q 1230 -1472 1390 -1413 Z"/>
  <path transform="matrix(1,0,0,1,1312,0)" d="M 801 0 Q 517 0 334 -201 Q 151 -402 151 -739 Q 151 -1079 329 -1275 Q 507 -1472 809 -1472 Q 1095 -1472 1277 -1271 Q 1460 -1071 1460 -739 Q 1460 -396 1280 -198 Q 1100 0 801 0 M 806 -198 Q 1213 -198 1213 -739 Q 1213 -1274 804 -1274 Q 398 -1274 398 -739 Q 398 -198 806 -198 Z"/>
  <path transform="matrix(1,0,0,1,2944,0)" d="M 1282 0 L 1282 -931 Q 1282 -1124 1247 -1199 Q 1213 -1274 1131 -1274 Q 1017 -1274 965 -1164 Q 914 -1055 914 -798 L 914 0 L 702 0 L 702 -931 Q 702 -1274 538 -1274 Q 428 -1274 380 -1169 Q 333 -1065 333 -750 L 333 0 L 121 0 L 121 -1472 L 288 -1472 L 323 -1251 L 336 -1251 Q 424 -1472 600 -1472 Q 813 -1472 879 -1232 L 887 -1232 Q 987 -1472 1175 -1472 Q 1343 -1472 1419 -1350 Q 1495 -1228 1495 -944 L 1495 0 L 1282 0 Z"/>
  <path transform="matrix(1,0,0,1,4576,0)" d="M 1175 0 L 1126 -221 L 1116 -221 Q 1014 -96 908 -48 Q 802 0 634 0 Q 420 0 298 -113 Q 177 -226 177 -430 Q 177 -866 847 -887 L 1113 -896 L 1113 -982 Q 1113 -1274 793 -1274 Q 600 -1274 363 -1167 L 280 -1346 Q 537 -1472 783 -1472 Q 1081 -1472 1214 -1357 Q 1347 -1243 1347 -990 L 1347 0 L 1175 0 M 1110 -732 L 897 -723 Q 640 -712 532 -641 Q 425 -570 425 -424 Q 425 -188 687 -188 Q 880 -188 995 -296 Q 1110 -404 1110 -601 L 1110 -732 Z"/>
  <path transform="matrix(1,0,0,1,6208,0)" d="M 1164 0 L 1164 -931 Q 1164 -1274 852 -1274 Q 449 -1274 449 -750 L 449 0 L 210 0 L 210 -1472 L 403 -1472 L 438 -1252 L 451 -1252 Q 586 -1472 892 -1472 Q 1403 -1472 1403 -944 L 1403 0 L 1164 0 Z"/>
  <path transform="matrix(1,0,0,1,7840,0)" d="M 1049 -492 L 1044 -492 Q 947 -256 742 -256 Q 584 -256 492 -398 Q 400 -541 400 -781 Q 400 -1063 527 -1235 Q 655 -1408 862 -1408 Q 1042 -1408 1198 -1344 L 1170 -773 Q 1167 -721 1167 -678 L 1167 -668 Q 1167 -427 1262 -427 Q 1393 -427 1393 -945 Q 1393 -1321 1247 -1535 Q 1102 -1749 855 -1749 Q 558 -1749 392 -1492 Q 226 -1236 226 -788 Q 226 -371 396 -143 Q 566 85 880 85 Q 1117 85 1334 -26 L 1334 148 Q 1127 256 872 256 Q 481 256 261 -18 Q 41 -292 41 -782 Q 41 -1307 260 -1613 Q 479 -1920 857 -1920 Q 1182 -1920 1377 -1657 Q 1572 -1394 1572 -940 Q 1572 -630 1488 -443 Q 1404 -256 1255 -256 Q 1087 -256 1049 -492 M 987 -1208 Q 916 -1237 852 -1237 Q 735 -1237 672 -1108 Q 610 -979 610 -775 Q 610 -427 777 -427 Q 949 -427 967 -858 L 987 -1208 Z"/>
  <path transform="matrix(1,0,0,1,9472,0)" d="M 1210 0 L 1175 -219 L 1162 -219 Q 1024 0 723 0 Q 210 0 210 -528 L 210 -1472 L 449 -1472 L 449 -541 Q 449 -198 759 -198 Q 970 -198 1067 -320 Q 1164 -442 1164 -721 L 1164 -1472 L 1403 -1472 L 1403 0 L 1210 0 Z"/>
  <path transform="matrix(1,0,0,1,11104,0)" d="M 1339 -223 L 1339 -42 Q 1168 0 1008 0 Q 533 0 533 -450 L 533 -1284 L 182 -1284 L 182 -1416 L 533 -1480 L 634 -1857 L 772 -1857 L 772 -1472 L 1347 -1472 L 1347 -1284 L 772 -1284 L 772 -453 Q 772 -198 1024 -198 Q 1146 -198 1339 -223 Z"/>
  <path transform="matrix(1,0,0,1,12736,0)" d="M 1177 -219 L 1167 -219 Q 1018 0 744 0 Q 480 0 330 -193 Q 180 -387 180 -733 Q 180 -1083 331 -1277 Q 482 -1472 744 -1472 Q 1015 -1472 1167 -1262 L 1183 -1262 Q 1167 -1432 1167 -1475 L 1167 -2048 L 1406 -2048 L 1406 0 L 1213 0 L 1177 -219 M 1167 -681 L 1167 -733 Q 1167 -1026 1076 -1150 Q 985 -1274 785 -1274 Q 428 -1274 428 -731 Q 428 -198 788 -198 Q 987 -198 1074 -312 Q 1162 -426 1167 -681 Z"/>
  <path transform="matrix(1,0,0,1,14368,0)" d="M 1175 0 L 1126 -221 L 1116 -221 Q 1014 -96 908 -48 Q 802 0 634 0 Q 420 0 298 -113 Q 177 -226 177 -430 Q 177 -866 847 -887 L 1113 -896 L 1113 -982 Q 1113 -1274 793 -1274 Q 600 -1274 363 -1167 L 280 -1346 Q 537 -1472 783 -1472 Q 1081 -1472 1214 -1357 Q 1347 -1243 1347 -990 L 1347 0 L 1175 0 M 1110 -732 L 897 -723 Q 640 -712 532 -641 Q 425 -570 425 -424 Q 425 -188 687 -188 Q 880 -188 995 -296 Q 1110 -404 1110 -601 L 1110 -732 Z"/>
  <path transform="matrix(1,0,0,1,16000,0)" d="M 698 -1860 L 347 -1888 L 347 -2048 L 938 -2048 L 938 -188 L 1400 -162 L 1400 0 L 247 0 L 247 -162 L 698 -188 L 698 -1860 Z"/>
  <path transform="matrix(1,0,0,1,17632,0)" d="M 698 -1860 L 347 -1888 L 347 -2048 L 938 -2048 L 938 -188 L 1400 -162 L 1400 0 L 247 0 L 247 -162 L 698 -188 L 698 -1860 Z"/>
  <path transform="matrix(1,0,0,1,19264,0)" d="M 1175 0 L 1126 -221 L 1116 -221 Q 1014 -96 908 -48 Q 802 0 634 0 Q 420 0 298 -113 Q 177 -226 177 -430 Q 177 -866 847 -887 L 1113 -896 L 1113 -982 Q 1113 -1274 793 -1274 Q 600 -1274 363 -1167 L 280 -1346 Q 537 -1472 783 -1472 Q 1081 -1472 1214 -1357 Q 1347 -1243 1347 -990 L 1347 0 L 1175 0 M 1110 -732 L 897 -723 Q 640 -712 532 -641 Q 425 -570 425 -424 Q 425 -188 687 -188 Q 880 -188 995 -296 Q 1110 -404 1110 -601 L 1110 -732 Z"/>
  <path transform="matrix(1,0,0,1,20896,0)" d="M 266 -90 L 266 -308 Q 519 -198 752 -198 Q 1113 -198 1113 -402 Q 1113 -476 1048 -530 Q 984 -584 752 -667 Q 446 -780 366 -873 Q 287 -967 287 -1095 Q 287 -1271 433 -1371 Q 580 -1472 838 -1472 Q 1098 -1472 1323 -1375 L 1244 -1180 Q 1005 -1274 826 -1274 Q 516 -1274 516 -1105 Q 516 -1026 582 -979 Q 649 -932 888 -848 Q 1165 -748 1256 -651 Q 1347 -555 1347 -415 Q 1347 -221 1193 -110 Q 1040 0 759 0 Q 433 0 266 -90 Z"/>
  <path transform="matrix(1,0,0,1,22528,0)" d="M 806 -384 Q 1005 -384 1005 -160 Q 1005 64 806 64 Q 608 64 608 -160 Q 608 -384 806 -384 Z"/>
  <path transform="matrix(1,0,0,1,24160,0)" d="M 1439 -698 L 423 -698 Q 433 -209 874 -209 Q 1130 -209 1360 -308 L 1360 -98 Q 1142 0 882 0 Q 561 0 368 -193 Q 175 -387 175 -726 Q 175 -1070 353 -1271 Q 531 -1472 829 -1472 Q 1107 -1472 1273 -1300 Q 1439 -1129 1439 -843 L 1439 -698 M 428 -896 L 1180 -896 Q 1180 -1274 823 -1274 Q 462 -1274 428 -896 Z"/>
  <path transform="matrix(1,0,0,1,25792,0)" d="M 1177 -219 L 1167 -219 Q 1018 0 744 0 Q 480 0 330 -193 Q 180 -387 180 -733 Q 180 -1083 331 -1277 Q 482 -1472 744 -1472 Q 1015 -1472 1167 -1262 L 1183 -1262 Q 1167 -1432 1167 -1475 L 1167 -2048 L 1406 -2048 L 1406 0 L 1213 0 L 1177 -219 M 1167 -681 L 1167 -733 Q 1167 -1026 1076 -1150 Q 985 -1274 785 -1274 Q 428 -1274 428 -731 Q 428 -198 788 -198 Q 987 -198 1074 -312 Q 1162 -426 1167 -681 Z"/>
  <path transform="matrix(1,0,0,1,27424,0)" d="M 1210 0 L 1175 -219 L 1162 -219 Q 1024 0 723 0 Q 210 0 210 -528 L 210 -1472 L 449 -1472 L 449 -541 Q 449 -198 759 -198 Q 970 -198 1067 -320 Q 1164 -442 1164 -721 L 1164 -1472 L 1403 -1472 L 1403 0 L 1210 0 Z"/>
</g>
</svg>
