<svg width="1059.473" height="84.865" viewBox="0 0 1059.473 84.865" xmlns="http://www.w3.org/2000/svg"><g id="svgGroup" stroke-linecap="round" fill-rule="evenodd" font-size="9pt" stroke="#000" stroke-width="0.25mm" fill="black" style="stroke:#000;stroke-width:0.25mm;fill:black"><path d="M 326.172 56.396 L 325.977 56.396 Q 322.363 65.186 314.746 65.186 A 10.385 10.385 0 0 1 306.656 61.62 A 13.883 13.883 0 0 1 305.469 60.083 A 18.449 18.449 0 0 1 303.073 54.742 Q 302.051 51.086 302.051 46.387 A 34.909 34.909 0 0 1 302.662 39.658 Q 303.753 34.108 306.787 30.151 A 15.941 15.941 0 0 1 311.691 25.822 Q 315.019 23.975 319.238 23.975 A 34.471 34.471 0 0 1 329.154 25.375 A 31.826 31.826 0 0 1 331.738 26.27 L 330.664 46.582 A 75.18 75.18 0 0 0 330.591 48.352 A 55.31 55.31 0 0 0 330.566 49.951 L 330.566 50.293 A 32.103 32.103 0 0 0 330.67 52.993 Q 331.171 58.887 334.082 58.887 A 2.906 2.906 0 0 0 336.537 57.26 Q 338.965 53.371 338.965 40.186 Q 338.965 26.611 333.545 18.896 A 18.871 18.871 0 0 0 328.521 13.901 Q 324.557 11.288 319.369 11.186 A 21.539 21.539 0 0 0 318.945 11.182 A 20.64 20.64 0 0 0 310.254 12.96 Q 305.22 15.265 301.733 20.557 A 33.576 33.576 0 0 0 297.566 29.902 Q 295.557 36.96 295.557 46.289 A 59.32 59.32 0 0 0 296.174 55.136 Q 296.885 59.841 298.415 63.652 A 26.514 26.514 0 0 0 301.88 69.849 A 20.563 20.563 0 0 0 316.868 78.027 A 29.94 29.94 0 0 0 319.873 78.174 A 39.065 39.065 0 0 0 336.768 74.365 L 336.768 80.859 A 35.916 35.916 0 0 1 322.497 84.766 A 42.983 42.983 0 0 1 319.58 84.863 A 33.536 33.536 0 0 1 309.563 83.442 A 25.995 25.995 0 0 1 296.851 74.756 A 33.869 33.869 0 0 1 290.846 63.097 Q 289.356 58.161 288.887 52.231 A 71.726 71.726 0 0 1 288.672 46.582 A 74.626 74.626 0 0 1 289.614 34.34 Q 291.443 23.356 296.826 15.894 A 27.337 27.337 0 0 1 305.429 7.97 Q 310.797 4.907 317.617 4.62 A 33.896 33.896 0 0 1 319.043 4.59 A 24.622 24.622 0 0 1 329.017 6.554 Q 334.437 8.925 338.403 14.16 A 33.036 33.036 0 0 1 343.726 25.07 Q 345.052 29.661 345.466 35.13 A 68.269 68.269 0 0 1 345.654 40.283 Q 345.654 51.563 342.529 58.374 Q 339.404 65.186 333.838 65.186 Q 328.58 65.186 326.743 58.965 A 20.732 20.732 0 0 1 326.172 56.396 Z M 162.744 75.977 L 154.834 75.977 L 154.834 41.455 Q 154.834 36.174 154.124 33.277 A 9.521 9.521 0 0 0 153.54 31.543 A 5.307 5.307 0 0 0 152.504 30.016 Q 151.429 28.936 149.775 28.785 A 6.086 6.086 0 0 0 149.219 28.76 Q 145.614 28.76 143.679 31.678 A 9.222 9.222 0 0 0 143.042 32.813 A 14.415 14.415 0 0 0 142.11 35.525 Q 141.386 38.444 141.188 42.855 A 78.966 78.966 0 0 0 141.113 46.387 L 141.113 75.977 L 133.252 75.977 L 133.252 41.455 A 39.888 39.888 0 0 0 133.055 37.303 Q 132.614 33.114 131.185 30.979 A 4.622 4.622 0 0 0 127.148 28.76 A 6.692 6.692 0 0 0 124.554 29.24 Q 122.902 29.927 121.845 31.602 A 8.568 8.568 0 0 0 121.289 32.642 A 12.721 12.721 0 0 0 120.53 35.024 Q 119.628 38.973 119.541 46.534 A 143.905 143.905 0 0 0 119.531 48.193 L 119.531 75.977 L 111.621 75.977 L 111.621 22.363 L 117.822 22.363 L 119.141 29.59 L 119.629 29.59 A 19.57 19.57 0 0 1 121.469 26.001 Q 122.739 24.09 124.324 22.971 A 8.655 8.655 0 0 1 129.443 21.387 Q 137.402 21.387 139.844 30.273 L 140.137 30.273 Q 143.848 21.387 150.83 21.387 Q 157.08 21.387 159.912 25.903 Q 162.3 29.711 162.674 37.807 A 68.478 68.478 0 0 1 162.744 40.967 L 162.744 75.977 Z M 399.365 75.977 L 392.188 75.977 L 390.869 68.799 L 390.381 68.799 A 16.822 16.822 0 0 1 378.053 76.666 A 26.456 26.456 0 0 1 374.072 76.953 A 26.728 26.728 0 0 1 366.43 75.957 Q 357.977 73.431 355.765 64.506 A 29.713 29.713 0 0 1 354.98 57.373 L 354.98 22.363 L 363.867 22.363 L 363.867 56.885 A 20.383 20.383 0 0 0 364.38 61.676 Q 365.936 68.09 372.218 69.299 A 16.802 16.802 0 0 0 375.391 69.58 Q 383.252 69.58 386.865 65.063 Q 390.135 60.977 390.446 52.113 A 54.684 54.684 0 0 0 390.479 50.195 L 390.479 22.363 L 399.365 22.363 L 399.365 75.977 Z M 1059.473 75.977 L 1052.295 75.977 L 1050.977 68.799 L 1050.488 68.799 A 16.822 16.822 0 0 1 1038.16 76.666 A 26.456 26.456 0 0 1 1034.18 76.953 A 26.728 26.728 0 0 1 1026.538 75.957 Q 1018.084 73.431 1015.872 64.506 A 29.713 29.713 0 0 1 1015.088 57.373 L 1015.088 22.363 L 1023.975 22.363 L 1023.975 56.885 A 20.383 20.383 0 0 0 1024.487 61.676 Q 1026.044 68.09 1032.325 69.299 A 16.802 16.802 0 0 0 1035.498 69.58 Q 1043.359 69.58 1046.973 65.063 Q 1050.242 60.977 1050.553 52.113 A 54.684 54.684 0 0 0 1050.586 50.195 L 1050.586 22.363 L 1059.473 22.363 L 1059.473 75.977 Z M 279.346 75.977 L 270.459 75.977 L 270.459 41.455 A 20.102 20.102 0 0 0 269.923 36.586 Q 267.962 28.76 258.838 28.76 Q 243.848 28.76 243.848 48.193 L 243.848 75.977 L 234.961 75.977 L 234.961 22.363 L 242.139 22.363 L 243.457 29.59 L 243.945 29.59 A 16.546 16.546 0 0 1 255.834 21.752 A 26.594 26.594 0 0 1 260.352 21.387 Q 275.5 21.387 278.567 33.841 A 29.869 29.869 0 0 1 279.346 40.967 L 279.346 75.977 Z M 777.148 73.584 L 777.148 65.479 A 51.428 51.428 0 0 0 786.094 68.561 A 39.103 39.103 0 0 0 795.215 69.678 Q 803.91 69.678 806.975 66.361 A 6.504 6.504 0 0 0 808.643 61.768 Q 808.643 58.984 806.25 56.934 A 10.715 10.715 0 0 0 804.785 55.913 Q 801.832 54.15 795.215 51.758 A 102.751 102.751 0 0 1 790.64 49.933 Q 783.192 46.735 780.884 43.97 A 12.658 12.658 0 0 1 777.93 35.596 A 12.925 12.925 0 0 1 778.935 30.416 Q 780.269 27.329 783.374 25.171 Q 788.818 21.387 798.438 21.387 A 45.536 45.536 0 0 1 813.546 23.865 A 42.938 42.938 0 0 1 816.455 25 L 813.525 32.275 A 61.321 61.321 0 0 0 807.422 30.203 Q 802.235 28.76 797.949 28.76 Q 790.679 28.76 787.996 31.345 A 5.187 5.187 0 0 0 786.426 35.254 Q 786.426 38.088 788.659 39.84 A 7.439 7.439 0 0 0 788.892 40.015 Q 791.033 41.562 798.016 44.159 A 182.357 182.357 0 0 0 800.244 44.971 Q 810.547 48.73 813.94 52.368 A 12.515 12.515 0 0 1 817.331 60.951 A 16.155 16.155 0 0 1 817.334 61.279 A 15.039 15.039 0 0 1 816.391 66.71 Q 815.013 70.3 811.621 72.778 A 19.347 19.347 0 0 1 805.837 75.595 Q 803.213 76.401 800.047 76.729 A 44.65 44.65 0 0 1 795.459 76.953 A 70.462 70.462 0 0 1 789.115 76.687 Q 781.606 76.006 777.148 73.584 Z M 613.184 68.994 L 613.184 6.982 L 600.098 5.957 L 600.098 0 L 622.119 0 L 622.119 68.994 L 639.307 69.971 L 639.307 75.977 L 596.387 75.977 L 596.387 69.971 L 613.184 68.994 Z M 673.193 68.994 L 673.193 6.982 L 660.107 5.957 L 660.107 0 L 682.129 0 L 682.129 68.994 L 699.316 69.971 L 699.316 75.977 L 656.396 75.977 L 656.396 69.971 L 673.193 68.994 Z M 456.982 68.652 L 456.982 75.391 Q 450.635 76.953 444.678 76.953 A 26.859 26.859 0 0 1 437.794 76.15 Q 429.001 73.812 427.372 64.666 A 25.758 25.758 0 0 1 427.002 60.156 L 427.002 29.053 L 413.965 29.053 L 413.965 24.463 L 427.002 22.07 L 430.762 8.057 L 435.889 8.057 L 435.889 22.363 L 457.275 22.363 L 457.275 29.053 L 435.889 29.053 L 435.889 60.156 A 13.987 13.987 0 0 0 436.337 63.866 Q 437.508 68.111 441.731 69.256 A 13.531 13.531 0 0 0 445.264 69.678 Q 449.755 69.678 456.826 68.675 A 162.742 162.742 0 0 0 456.982 68.652 Z M 512.305 75.977 L 510.986 68.799 L 510.596 68.799 A 18.267 18.267 0 0 1 504.212 74.752 Q 500.687 76.674 496.199 76.918 A 24.429 24.429 0 0 1 494.873 76.953 A 21.178 21.178 0 0 1 487.85 75.839 A 17.819 17.819 0 0 1 479.468 69.653 Q 475.007 63.829 474.105 54.322 A 53.574 53.574 0 0 1 473.877 49.268 Q 473.877 36.084 479.492 28.735 Q 485.107 21.387 494.873 21.387 A 20.675 20.675 0 0 1 502.256 22.651 Q 507.208 24.529 510.592 29.195 A 19.986 19.986 0 0 1 510.596 29.199 L 511.182 29.199 Q 510.633 23.305 510.598 21.516 A 11.568 11.568 0 0 1 510.596 21.289 L 510.596 0 L 519.482 0 L 519.482 75.977 L 512.305 75.977 Z M 992.383 75.977 L 991.064 68.799 L 990.674 68.799 A 18.267 18.267 0 0 1 984.29 74.752 Q 980.765 76.674 976.277 76.918 A 24.429 24.429 0 0 1 974.951 76.953 A 21.178 21.178 0 0 1 967.928 75.839 A 17.819 17.819 0 0 1 959.546 69.653 Q 955.085 63.829 954.184 54.322 A 53.574 53.574 0 0 1 953.955 49.268 Q 953.955 36.084 959.57 28.735 Q 965.186 21.387 974.951 21.387 A 20.675 20.675 0 0 1 982.334 22.651 Q 987.286 24.529 990.671 29.195 A 19.986 19.986 0 0 1 990.674 29.199 L 991.26 29.199 Q 990.711 23.305 990.676 21.516 A 11.568 11.568 0 0 1 990.674 21.289 L 990.674 0 L 999.561 0 L 999.561 75.977 L 992.383 75.977 Z M 217.236 75.977 L 210.84 75.977 L 209.033 68.555 L 208.643 68.555 Q 204.883 73.291 200.928 75.122 Q 196.973 76.953 190.723 76.953 Q 184.233 76.953 180.032 74.161 A 13.985 13.985 0 0 1 178.247 72.754 A 13.726 13.726 0 0 1 174.194 65.489 A 20.68 20.68 0 0 1 173.73 60.986 Q 173.73 45.108 197.621 44.033 A 74.338 74.338 0 0 1 198.633 43.994 L 208.545 43.652 L 208.545 40.283 A 15.989 15.989 0 0 0 207.933 35.653 Q 206.392 30.564 200.966 29.232 A 18.227 18.227 0 0 0 196.631 28.76 A 30.714 30.714 0 0 0 189.785 29.582 Q 185.448 30.574 180.615 32.764 L 177.539 26.074 Q 187.109 21.387 196.24 21.387 Q 207.324 21.387 212.28 25.635 Q 216.36 29.131 217.081 36.102 A 30.68 30.68 0 0 1 217.236 39.258 L 217.236 75.977 Z M 577.295 75.977 L 570.898 75.977 L 569.092 68.555 L 568.701 68.555 Q 564.941 73.291 560.986 75.122 Q 557.031 76.953 550.781 76.953 Q 544.291 76.953 540.09 74.161 A 13.985 13.985 0 0 1 538.306 72.754 A 13.726 13.726 0 0 1 534.252 65.489 A 20.68 20.68 0 0 1 533.789 60.986 Q 533.789 45.108 557.68 44.033 A 74.338 74.338 0 0 1 558.691 43.994 L 568.604 43.652 L 568.604 40.283 A 15.989 15.989 0 0 0 567.992 35.653 Q 566.451 30.564 561.025 29.232 A 18.227 18.227 0 0 0 556.689 28.76 A 30.714 30.714 0 0 0 549.844 29.582 Q 545.507 30.574 540.674 32.764 L 537.598 26.074 Q 547.168 21.387 556.299 21.387 Q 567.383 21.387 572.339 25.635 Q 576.418 29.131 577.14 36.102 A 30.68 30.68 0 0 1 577.295 39.258 L 577.295 75.977 Z M 757.324 75.977 L 750.928 75.977 L 749.121 68.555 L 748.73 68.555 Q 744.971 73.291 741.016 75.122 Q 737.061 76.953 730.811 76.953 Q 724.321 76.953 720.119 74.161 A 13.985 13.985 0 0 1 718.335 72.754 A 13.726 13.726 0 0 1 714.282 65.489 A 20.68 20.68 0 0 1 713.818 60.986 Q 713.818 45.108 737.709 44.033 A 74.338 74.338 0 0 1 738.721 43.994 L 748.633 43.652 L 748.633 40.283 A 15.989 15.989 0 0 0 748.021 35.653 Q 746.48 30.564 741.054 29.232 A 18.227 18.227 0 0 0 736.719 28.76 A 30.714 30.714 0 0 0 729.873 29.582 Q 725.536 30.574 720.703 32.764 L 717.627 26.074 Q 727.197 21.387 736.328 21.387 Q 747.412 21.387 752.368 25.635 Q 756.448 29.131 757.169 36.102 A 30.68 30.68 0 0 1 757.324 39.258 L 757.324 75.977 Z M 940.771 45.361 L 940.771 50.879 L 902.979 50.879 A 29.734 29.734 0 0 0 903.901 57.958 Q 906.397 67.227 915.586 68.847 A 24.156 24.156 0 0 0 919.775 69.189 Q 929.297 69.189 937.842 65.479 L 937.842 73.291 A 41.75 41.75 0 0 1 923.051 76.864 A 49.213 49.213 0 0 1 920.068 76.953 A 31.729 31.729 0 0 1 911.611 75.883 A 23.444 23.444 0 0 1 900.928 69.653 Q 893.75 62.354 893.75 49.561 A 41.25 41.25 0 0 1 894.568 41.095 Q 896.076 33.903 900.366 28.979 A 21.76 21.76 0 0 1 915.654 21.481 A 30.309 30.309 0 0 1 918.066 21.387 A 26.507 26.507 0 0 1 925.38 22.346 A 20.008 20.008 0 0 1 934.595 27.93 A 22.079 22.079 0 0 1 940.138 38.832 A 31.992 31.992 0 0 1 940.771 45.361 Z M 38.818 23.584 L 36.426 31.689 Q 31.098 29.74 26.616 29.52 A 22.988 22.988 0 0 0 25.488 29.492 Q 18.856 29.492 14.749 32.629 A 13.325 13.325 0 0 0 13.208 34.009 Q 9.466 37.92 8.964 44.852 A 30.749 30.749 0 0 0 8.887 47.07 L 8.887 75.977 L 0 75.977 L 0 22.363 L 7.227 22.363 L 8.301 32.178 L 8.691 32.178 A 34.854 34.854 0 0 1 11.428 28.43 Q 12.981 26.593 14.62 25.282 A 17.056 17.056 0 0 1 16.65 23.877 Q 20.718 21.493 26.576 21.391 A 30.271 30.271 0 0 1 27.1 21.387 A 32.612 32.612 0 0 1 36.222 22.728 A 38.578 38.578 0 0 1 38.818 23.584 Z M 76.904 76.953 Q 66.357 76.953 59.546 69.36 Q 52.814 61.857 52.735 49.369 A 46.981 46.981 0 0 1 52.734 49.072 Q 52.734 36.23 59.351 28.809 A 21.784 21.784 0 0 1 73.473 21.606 A 30.691 30.691 0 0 1 77.197 21.387 A 24.423 24.423 0 0 1 86.052 22.941 A 22.12 22.12 0 0 1 94.629 28.955 A 25.771 25.771 0 0 1 100.539 40.696 A 37.857 37.857 0 0 1 101.416 49.072 Q 101.416 62.012 94.727 69.482 A 22.079 22.079 0 0 1 79.783 76.821 A 30.72 30.72 0 0 1 76.904 76.953 Z M 91.947 54.354 A 45.001 45.001 0 0 0 92.236 49.072 Q 92.236 29.684 78.356 28.802 A 21.361 21.361 0 0 0 77.002 28.76 Q 61.914 28.76 61.914 49.072 Q 61.914 68.827 76.005 69.552 A 21.295 21.295 0 0 0 77.1 69.58 Q 90.142 69.58 91.947 54.354 Z M 510.596 51.27 L 510.596 49.268 A 57.984 57.984 0 0 0 510.384 44.124 Q 509.747 37.006 507.202 33.472 A 10.805 10.805 0 0 0 501.013 29.317 Q 499.133 28.812 496.861 28.765 A 22.776 22.776 0 0 0 496.387 28.76 A 11.119 11.119 0 0 0 485.786 35.011 Q 483.105 40.109 483.105 49.365 Q 483.105 68.833 495.514 69.553 A 16.769 16.769 0 0 0 496.484 69.58 A 20.035 20.035 0 0 0 500.426 69.219 Q 502.687 68.765 504.396 67.738 A 9.592 9.592 0 0 0 507.153 65.259 Q 510.4 60.938 510.596 51.27 Z M 990.674 51.27 L 990.674 49.268 A 57.984 57.984 0 0 0 990.462 44.124 Q 989.825 37.006 987.28 33.472 A 10.805 10.805 0 0 0 981.091 29.317 Q 979.211 28.812 976.939 28.765 A 22.776 22.776 0 0 0 976.465 28.76 A 11.119 11.119 0 0 0 965.864 35.011 Q 963.184 40.109 963.184 49.365 Q 963.184 68.833 975.592 69.553 A 16.769 16.769 0 0 0 976.563 69.58 A 20.035 20.035 0 0 0 980.504 69.219 Q 982.765 68.765 984.474 67.738 A 9.592 9.592 0 0 0 987.231 65.259 Q 990.479 60.938 990.674 51.27 Z M 208.447 54.59 L 208.447 49.756 L 200.537 50.098 A 60.087 60.087 0 0 0 196.1 50.432 Q 191.578 50.955 188.757 52.157 A 11.616 11.616 0 0 0 186.963 53.101 A 8.485 8.485 0 0 0 183.078 59.314 A 12.675 12.675 0 0 0 182.959 61.084 Q 182.959 69.514 192.146 69.768 A 20.975 20.975 0 0 0 192.725 69.775 A 20.961 20.961 0 0 0 197.604 69.239 A 14.338 14.338 0 0 0 204.175 65.796 A 12.987 12.987 0 0 0 207.976 59.031 A 19.742 19.742 0 0 0 208.447 54.59 Z M 568.506 54.59 L 568.506 49.756 L 560.596 50.098 A 60.087 60.087 0 0 0 556.158 50.432 Q 551.636 50.955 548.816 52.157 A 11.616 11.616 0 0 0 547.021 53.101 A 8.485 8.485 0 0 0 543.137 59.314 A 12.675 12.675 0 0 0 543.018 61.084 Q 543.018 69.514 552.204 69.768 A 20.975 20.975 0 0 0 552.783 69.775 A 20.961 20.961 0 0 0 557.663 69.239 A 14.338 14.338 0 0 0 564.233 65.796 A 12.987 12.987 0 0 0 568.035 59.031 A 19.742 19.742 0 0 0 568.506 54.59 Z M 748.535 54.59 L 748.535 49.756 L 740.625 50.098 A 60.087 60.087 0 0 0 736.188 50.432 Q 731.665 50.955 728.845 52.157 A 11.616 11.616 0 0 0 727.051 53.101 A 8.485 8.485 0 0 0 723.166 59.314 A 12.675 12.675 0 0 0 723.047 61.084 Q 723.047 69.514 732.234 69.768 A 20.975 20.975 0 0 0 732.812 69.775 A 20.961 20.961 0 0 0 737.692 69.239 A 14.338 14.338 0 0 0 744.263 65.796 A 12.987 12.987 0 0 0 748.064 59.031 A 19.742 19.742 0 0 0 748.535 54.59 Z M 903.174 43.652 L 931.152 43.652 A 24.319 24.319 0 0 0 930.561 38.032 Q 928.351 28.76 917.871 28.76 A 17.517 17.517 0 0 0 911.836 29.72 Q 904.197 32.513 903.193 43.435 A 33.055 33.055 0 0 0 903.174 43.652 Z M 323.145 43.652 L 323.877 31.299 A 15.853 15.853 0 0 0 321.301 30.53 A 12.267 12.267 0 0 0 318.848 30.273 A 6.685 6.685 0 0 0 313.425 32.895 A 10.904 10.904 0 0 0 312.183 34.839 A 19.449 19.449 0 0 0 310.602 39.311 Q 309.863 42.531 309.863 46.582 Q 309.863 53.899 312.056 56.865 A 4.734 4.734 0 0 0 316.064 58.887 Q 322.461 58.887 323.145 43.652 Z M 864.648 69.385 A 17.522 17.522 0 0 0 864.648 69.273 Q 864.597 61.279 857.227 61.279 Q 851.438 61.279 850.194 66.276 A 12.912 12.912 0 0 0 849.854 69.385 A 17.449 17.449 0 0 0 849.855 69.611 Q 849.933 75.625 854.186 77.049 A 9.572 9.572 0 0 0 857.227 77.49 A 10.872 10.872 0 0 0 859.304 77.304 Q 863.295 76.526 864.306 72.493 A 12.831 12.831 0 0 0 864.648 69.385 Z" vector-effect="non-scaling-stroke"/></g></svg>
