<svg height="76" viewBox="0 0 513 76" width="513" xmlns="http://www.w3.org/2000/svg">
<g class="text">
<path d="M 24.966444 48.61745Q 24.966444 43.24832 22.751678 40.295303Q 20.536913 37.34228 16.536913 37.34228Q 12.563759 37.34228 10.348993 40.295303Q 8.134228 43.24832 8.134228 48.61745Q 8.134228 53.959732 10.348993 56.91275Q 12.563759 59.865772 16.536913 59.865772Q 20.536913 59.865772 22.751678 56.91275Q 24.966444 53.959732 24.966444 48.61745Z M 29.90604 60.268456Q 29.90604 67.94631 26.496645 71.69128Q 23.087248 75.43624 16.053692 75.43624Q 13.449664 75.43624 11.14094 75.04698Q 8.832214 74.657715 6.657718 73.85235L 6.657718 69.04698Q 8.832214 70.22819 10.95302 70.79195Q 13.073826 71.355705 15.275167 71.355705Q 20.134228 71.355705 22.550335 68.818794Q 24.966444 66.281876 24.966444 61.15436L 24.966444 58.71141Q 23.436241 61.36913 21.04698 62.684563Q 18.657719 64 15.328859 64Q 9.798657 64 6.416107 59.785236Q 3.0335572 55.57047 3.0335572 48.61745Q 3.0335572 41.637585 6.416107 37.42282Q 9.798657 33.208054 15.328859 33.208054Q 18.657719 33.208054 21.04698 34.52349Q 23.436241 35.83893 24.966444 38.496643L 24.966444 33.932884L 29.90604 33.932884L 29.90604 60.268456Z M 40.08054 33.932884L 45.020134 33.932884L 45.020134 64L 40.08054 64L 40.08054 33.932884Z M 40.08054 22.228188L 45.020134 22.228188L 45.020134 28.483223L 40.08054 28.483223L 40.08054 22.228188Z M 80.349 45.85235L 80.349 64L 75.4094 64L 75.4094 46.01342Q 75.4094 41.744965 73.74497 39.62416Q 72.080536 37.503357 68.75168 37.503357Q 64.75168 37.503357 62.442955 40.05369Q 60.13423 42.604027 60.13423 47.006714L 60.13423 64L 55.16779 64L 55.16779 33.932884L 60.13423 33.932884L 60.13423 38.604027Q 61.906044 35.892616 64.30873 34.550335Q 66.71141 33.208054 69.852356 33.208054Q 75.03356 33.208054 77.69128 36.416107Q 80.349 39.62416 80.349 45.85235Z M 101.852356 37.395973Q 97.8792 37.395973 95.57048 40.496643Q 93.26175 43.597313 93.26175 48.99329Q 93.26175 54.38926 95.55705 57.489933Q 97.852356 60.590603 101.852356 60.590603Q 105.79867 60.590603 108.10739 57.47651Q 110.416115 54.362415 110.416115 48.99329Q 110.416115 43.65101 108.10739 40.52349Q 105.79867 37.395973 101.852356 37.395973Z M 101.852356 33.208054Q 108.29531 33.208054 111.97316 37.395973Q 115.65102 41.583893 115.65102 48.99329Q 115.65102 56.37584 111.97316 60.577183Q 108.29531 64.77853 101.852356 64.77853Q 95.38256 64.77853 91.718124 60.577183Q 88.053696 56.37584 88.053696 48.99329Q 88.053696 41.583893 91.718124 37.395973Q 95.38256 33.208054 101.852356 33.208054Z M 139.1141 49.583893Q 139.1141 53.42282 141.02014 55.610737Q 142.9262 57.798656 146.25505 57.798656Q 149.55705 57.798656 151.44968 55.597317Q 153.34229 53.395973 153.34229 49.583893Q 153.34229 45.8255 151.40941 43.61074Q 149.47652 41.395973 146.20135 41.395973Q 142.95303 41.395973 141.03357 43.597313Q 139.1141 45.79866 139.1141 49.583893Z M 153.74498 57.610737Q 152.13425 59.677853 150.05371 60.65772Q 147.97318 61.637585 145.20807 61.637585Q 140.59062 61.637585 137.70471 58.295303Q 134.8188 54.95302 134.8188 49.583893Q 134.8188 44.214767 137.71814 40.859062Q 140.61746 37.503357 145.20807 37.503357Q 147.97318 37.503357 150.06712 38.510067Q 152.16109 39.516777 153.74498 41.557045L 153.74498 38.040268L 157.58391 38.040268L 157.58391 57.798656Q 161.50337 57.208054 163.71814 54.214764Q 165.93289 51.221478 165.93289 46.4698Q 165.93289 43.597313 165.08727 41.073826Q 164.24162 38.550335 162.5235 36.402687Q 159.73155 32.885906 155.71814 31.020134Q 151.70471 29.154362 146.97987 29.154362Q 143.67786 29.154362 140.6443 30.026844Q 137.61075 30.89933 135.03357 32.617447Q 130.8188 35.355705 128.44296 39.79866Q 126.06712 44.24161 126.06712 49.42282Q 126.06712 53.691277 127.61075 57.422817Q 129.15437 61.15436 132.08055 64Q 134.89934 66.79195 138.60403 68.255035Q 142.30873 69.718124 146.5235 69.718124Q 149.98659 69.718124 153.32887 68.55034Q 156.67116 67.38255 159.4631 65.20805L 161.87921 68.18792Q 158.5235 70.79195 154.56377 72.1745Q 150.60403 73.557045 146.5235 73.557045Q 141.55705 73.557045 137.15437 71.79866Q 132.7517 70.04027 129.31544 66.68456Q 125.8792 63.328857 124.08055 58.91275Q 122.28189 54.496643 122.28189 49.42282Q 122.28189 44.53691 124.10739 40.107384Q 125.9329 35.677853 129.31544 32.322147Q 132.77853 28.91275 137.31544 27.10067Q 141.85236 25.28859 146.9262 25.28859Q 152.61746 25.28859 157.48994 27.62416Q 162.36243 29.959732 165.66444 34.255035Q 167.67786 36.885906 168.73827 39.973152Q 169.79868 43.060402 169.79868 46.362415Q 169.79868 53.42282 165.53021 57.503357Q 161.26175 61.583893 153.74498 61.744965L 153.74498 57.610737Z M 178.30875 52.134228L 178.30875 33.932884L 183.24834 33.932884L 183.24834 51.94631Q 183.24834 56.214764 184.91277 58.34899Q 186.5772 60.483223 189.90607 60.483223Q 193.90607 60.483223 196.22821 57.932884Q 198.55035 55.38255 198.55035 50.979866L 198.55035 33.932884L 203.48996 33.932884L 203.48996 64L 198.55035 64L 198.55035 59.38255Q 196.7517 62.120804 194.37585 63.449665Q 192.00002 64.77853 188.85909 64.77853Q 183.67787 64.77853 180.9933 61.557045Q 178.30875 58.33557 178.30875 52.134228Z M 190.73828 33.208054L 190.73828 33.208054Z M 218.55035 25.395973L 218.55035 33.932884L 228.72485 33.932884L 228.72485 37.771812L 218.55035 37.771812L 218.55035 54.09396Q 218.55035 57.771812 219.55707 58.81879Q 220.56378 59.865772 223.65103 59.865772L 228.72485 59.865772L 228.72485 64L 223.65103 64Q 217.9329 64 215.7584 61.865772Q 213.58392 59.731544 213.58392 54.09396L 213.58392 37.771812L 209.95976 37.771812L 209.95976 33.932884L 213.58392 33.932884L 213.58392 25.395973L 218.55035 25.395973Z M 255.00674 38.496643L 255.00674 22.228188L 259.94635 22.228188L 259.94635 64L 255.00674 64L 255.00674 59.489933Q 253.44969 62.174496 251.07385 63.47651Q 248.69801 64.77853 245.36916 64.77853Q 239.9195 64.77853 236.49667 60.42953Q 233.07385 56.080536 233.07385 48.99329Q 233.07385 41.90604 236.49667 37.557045Q 239.9195 33.208054 245.36916 33.208054Q 248.69801 33.208054 251.07385 34.510067Q 253.44969 35.81208 255.00674 38.496643Z M 238.17453 48.99329Q 238.17453 54.442955 240.41614 57.543625Q 242.65775 60.644295 246.57721 60.644295Q 250.49667 60.644295 252.75171 57.543625Q 255.00674 54.442955 255.00674 48.99329Q 255.00674 43.543625 252.75171 40.442955Q 250.49667 37.34228 246.57721 37.34228Q 242.65775 37.34228 240.41614 40.442955Q 238.17453 43.543625 238.17453 48.99329Z M 283.78528 48.885906Q 277.7987 48.885906 275.48996 50.255035Q 273.18124 51.62416 273.18124 54.926174Q 273.18124 57.557045 274.91278 59.10067Q 276.64435 60.644295 279.6242 60.644295Q 283.73157 60.644295 286.2148 57.731544Q 288.69803 54.818794 288.69803 49.986576L 288.69803 48.885906L 283.78528 48.885906Z M 293.63763 46.84564L 293.63763 64L 288.69803 64L 288.69803 59.43624Q 287.00674 62.174496 284.48328 63.47651Q 281.95978 64.77853 278.30878 64.77853Q 273.6913 64.77853 270.9665 62.18792Q 268.24164 59.597317 268.24164 55.24832Q 268.24164 50.174496 271.63763 47.597313Q 275.0336 45.020134 281.77185 45.020134L 288.69803 45.020134L 288.69803 44.53691Q 288.69803 41.127518 286.45642 39.261745Q 284.2148 37.395973 280.1611 37.395973Q 277.58392 37.395973 275.141 38.01342Q 272.69803 38.630875 270.443 39.865772L 270.443 35.302013Q 273.1544 34.255035 275.70474 33.731544Q 278.25507 33.208054 280.67117 33.208054Q 287.19467 33.208054 290.41614 36.590607Q 293.63763 39.973152 293.63763 46.84564Z M 303.81213 22.228188L 308.75174 22.228188L 308.75174 64L 303.81213 64L 303.81213 22.228188Z M 319.0873 22.228188L 324.02692 22.228188L 324.02692 64L 319.0873 64L 319.0873 22.228188Z M 348.02692 48.885906Q 342.04034 48.885906 339.7316 50.255035Q 337.42288 51.62416 337.42288 54.926174Q 337.42288 57.557045 339.15442 59.10067Q 340.886 60.644295 343.86584 60.644295Q 347.9732 60.644295 350.45645 57.731544Q 352.93967 54.818794 352.93967 49.986576L 352.93967 48.885906L 348.02692 48.885906Z M 357.87927 46.84564L 357.87927 64L 352.93967 64L 352.93967 59.43624Q 351.24838 62.174496 348.7249 63.47651Q 346.20142 64.77853 342.5504 64.77853Q 337.93295 64.77853 335.20813 62.18792Q 332.48328 59.597317 332.48328 55.24832Q 332.48328 50.174496 335.87927 47.597313Q 339.27524 45.020134 346.0135 45.020134L 352.93967 45.020134L 352.93967 44.53691Q 352.93967 41.127518 350.69806 39.261745Q 348.45645 37.395973 344.40274 37.395973Q 341.82556 37.395973 339.38263 38.01342Q 336.93967 38.630875 334.68463 39.865772L 334.68463 35.302013Q 337.39603 34.255035 339.94638 33.731544Q 342.4967 33.208054 344.9128 33.208054Q 351.4363 33.208054 354.65778 36.590607Q 357.87927 39.973152 357.87927 46.84564Z M 387.22156 34.818794L 387.22156 39.489933Q 385.1276 38.416107 382.87256 37.879196Q 380.61752 37.34228 378.20142 37.34228Q 374.52356 37.34228 372.68463 38.4698Q 370.8457 39.597313 370.8457 41.85235Q 370.8457 43.57047 372.16116 44.550335Q 373.4766 45.5302 377.44974 46.416107L 379.14102 46.791946Q 384.40277 47.919464 386.61752 49.973152Q 388.83228 52.026848 388.83228 55.704697Q 388.83228 59.892616 385.51685 62.33557Q 382.20142 64.77853 376.40277 64.77853Q 373.98666 64.77853 371.3692 64.30872Q 368.75174 63.838924 365.85242 62.89933L 365.85242 57.798656Q 368.59067 59.221478 371.2484 59.932884Q 373.90613 60.644295 376.51013 60.644295Q 380.00006 60.644295 381.87927 59.449665Q 383.75845 58.255035 383.75845 56.080536Q 383.75845 54.067116 382.40277 52.99329Q 381.04706 51.919464 376.45645 50.926174L 374.73834 50.52349Q 370.14774 49.557045 368.10745 47.557045Q 366.0672 45.557045 366.0672 42.067116Q 366.0672 37.8255 369.0739 35.516777Q 372.08063 33.208054 377.6108 33.208054Q 380.34906 33.208054 382.76517 33.61074Q 385.18127 34.01342 387.22156 34.818794Z M 397.39603 57.18121L 403.06046 57.18121L 403.06046 64L 397.39603 64L 397.39603 57.18121Z M 439.89267 47.731544L 439.89267 50.14765L 417.18127 50.14765Q 417.50342 55.24832 420.2551 57.919464Q 423.00677 60.590603 427.91953 60.590603Q 430.76517 60.590603 433.4363 59.892616Q 436.10745 59.19463 438.7383 57.798656L 438.7383 62.4698Q 436.0806 63.597317 433.28864 64.18792Q 430.4967 64.77853 427.6242 64.77853Q 420.4296 64.77853 416.22824 60.590603Q 412.02692 56.402683 412.02692 49.261745Q 412.02692 41.879196 416.0135 37.543625Q 420.00006 33.208054 426.76517 33.208054Q 432.83228 33.208054 436.3625 37.114094Q 439.89267 41.020134 439.89267 47.731544Z M 434.95306 46.28188Q 434.89938 42.228188 432.68463 39.81208Q 430.46985 37.395973 426.81885 37.395973Q 422.68463 37.395973 420.20142 39.731544Q 417.71817 42.067116 417.34235 46.308723L 434.95306 46.28188Z M 467.78528 38.496643L 467.78528 22.228188L 472.72488 22.228188L 472.72488 64L 467.78528 64L 467.78528 59.489933Q 466.22824 62.174496 463.85242 63.47651Q 461.47656 64.77853 458.1477 64.77853Q 452.69803 64.77853 449.27524 60.42953Q 445.85242 56.080536 445.85242 48.99329Q 445.85242 41.90604 449.27524 37.557045Q 452.69803 33.208054 458.1477 33.208054Q 461.47656 33.208054 463.85242 34.510067Q 466.22824 35.81208 467.78528 38.496643Z M 450.95306 48.99329Q 450.95306 54.442955 453.1947 57.543625Q 455.4363 60.644295 459.35577 60.644295Q 463.2752 60.644295 465.53024 57.543625Q 467.78528 54.442955 467.78528 48.99329Q 467.78528 43.543625 465.53024 40.442955Q 463.2752 37.34228 459.35577 37.34228Q 455.4363 37.34228 453.1947 40.442955Q 450.95306 43.543625 450.95306 48.99329Z M 482.3893 52.134228L 482.3893 33.932884L 487.32892 33.932884L 487.32892 51.94631Q 487.32892 56.214764 488.99335 58.34899Q 490.65778 60.483223 493.98663 60.483223Q 497.98663 60.483223 500.30878 57.932884Q 502.63092 55.38255 502.63092 50.979866L 502.63092 33.932884L 507.57053 33.932884L 507.57053 64L 502.63092 64L 502.63092 59.38255Q 500.83228 62.120804 498.45642 63.449665Q 496.0806 64.77853 492.93964 64.77853Q 487.75845 64.77853 485.07388 61.557045Q 482.3893 58.33557 482.3893 52.134228Z M 494.81885 33.208054L 494.81885 33.208054Z " fill="#000" stroke="#000" stroke-linecap="round" stroke-linejoin="round" stroke-width="1"/>
</g>
</svg>