<svg xmlns="http://www.w3.org/2000/svg" xmlns:xlink="http://www.w3.org/1999/xlink" fill="none" stroke-linecap="square" stroke-miterlimit="10" viewBox="0 0 958.399 103.425" xmlns:v="https://vecta.io/nano">
	<clipPath id="A">
		<path d="M0 0h958.4v103.43H0V0z"/>
	</clipPath>
	<g clip-path="url(#A)" fill-rule="evenodd">
		<path d="M0 0h958.4v103.43H0z" fill="#000" fill-opacity="0"/>
		<g fill="#dedede">
			<path d="M22.751 22.39c-5.744 0-10.18 2.494-13.31 7.48l-.155-6.449H0V79.24h9.544V39.62c2.236-5.331 6.483-7.996 12.743-7.996 1.685 0 3.25.12 4.695.361v-8.873c-.963-.481-2.373-.722-4.23-.722zm34.771 7.841c4.815 0 8.673 1.903 11.573 5.709 2.912 3.795 4.368 8.753 4.368 14.875 0 6.844-1.427 12.169-4.282 15.975-2.855 3.795-6.707 5.692-11.556 5.692-4.815 0-8.661-1.874-11.539-5.623-2.866-3.749-4.299-8.718-4.299-14.909 0-6.982 1.444-12.347 4.334-16.096s6.689-5.623 11.401-5.623zm0-7.841c-4.918 0-9.298 1.186-13.138 3.56-3.829 2.373-6.821 5.744-8.977 10.111-2.144 4.368-3.216 9.286-3.216 14.754v.671c0 8.667 2.345 15.631 7.033 20.893 4.7 5.262 10.834 7.893 18.4 7.893 5.021 0 9.464-1.204 13.327-3.611 3.875-2.407 6.85-5.766 8.925-10.077 2.087-4.322 3.13-9.2 3.13-14.634v-.671c0-8.736-2.35-15.735-7.051-20.997-4.689-5.262-10.834-7.893-18.435-7.893zm63.248 0c-6.947 0-12.467 2.407-16.56 7.222l-.258-6.191h-9.028V79.24h9.544V38.486c2.304-5.331 6.586-7.996 12.846-7.996 7.945 0 11.917 4.058 11.917 12.175V79.24h9.596V42.199c.378-3.577 1.737-6.42 4.076-8.529 2.339-2.121 5.279-3.181 8.822-3.181 4.299 0 7.36.992 9.183 2.975 1.823 1.972 2.734 4.953 2.734 8.942V79.24h9.544V41.838c-.206-12.966-6.431-19.449-18.675-19.449-4.058 0-7.578.825-10.559 2.476-2.969 1.651-5.382 3.818-7.24 6.5-2.82-5.984-8.134-8.976-15.941-8.976z"/>
			<use xlink:href="#C"/>
			<path d="M271.1 22.39c-6.879 0-12.45 2.683-16.715 8.048l-.31-7.016h-9.028v55.819h9.544V39.466c1.307-2.683 3.13-4.849 5.469-6.5s5.056-2.476 8.151-2.476c3.818 0 6.626.963 8.426 2.889 1.811 1.926 2.734 4.901 2.769 8.925v36.938h9.544V42.355c-.103-13.31-6.053-19.965-17.85-19.965zm76.67 12.432c2.201 0 4.265.499 6.191 1.496l-2.373 25.949-.052.464c-1.238 3.267-2.815 5.778-4.729 7.532-1.903 1.754-3.886 2.631-5.95 2.631-3.027 0-5.239-1.307-6.638-3.921-1.387-2.614-1.84-6.363-1.358-11.246.653-7.085 2.293-12.674 4.918-16.766 2.637-4.093 5.967-6.139 9.991-6.139zm-1.548-29.406c-8.22 0-15.597 2.058-22.132 6.174-6.535 4.104-11.711 9.934-15.528 17.489-3.818 7.543-5.933 16.044-6.346 25.502-.413 9.733.917 18.234 3.99 25.502 3.084 7.28 7.721 12.851 13.912 16.715 6.191 3.875 13.585 5.812 22.184 5.812a44.91 44.91 0 0 0 10.696-1.29c3.531-.86 6.363-1.96 8.495-3.302l-1.909-5.933c-2.064 1.204-4.654 2.184-7.773 2.941-3.107.757-6.208 1.135-9.303 1.135-7.188 0-13.322-1.662-18.4-4.987-5.067-3.313-8.839-8.105-11.315-14.376-2.476-6.282-3.508-13.688-3.095-22.218.378-8.461 2.115-15.924 5.211-22.39s7.326-11.407 12.691-14.823c5.365-3.428 11.504-5.142 18.417-5.142 11.487 0 20.04 3.508 25.657 10.524 5.629 7.016 8.117 17.213 7.463 30.592-.206 6.191-1.513 11.212-3.921 15.064s-5.555 5.778-9.441 5.778c-5.056 0-7.257-3.972-6.603-11.917l2.683-28.58c-2.751-2.167-5.228-3.617-7.429-4.351-2.201-.745-4.695-1.118-7.481-1.118-3.611 0-7.062 1.273-10.352 3.818-3.279 2.545-5.962 6.047-8.048 10.507-2.075 4.448-3.37 9.51-3.886 15.184-.653 7.051.275 12.57 2.786 16.56s6.208 5.984 11.092 5.984c2.545 0 5.01-.711 7.394-2.132 2.396-1.433 4.523-3.611 6.38-6.535 1.823 5.778 5.95 8.667 12.382 8.667 6.225 0 11.195-2.407 14.909-7.222s5.778-11.384 6.191-19.707c.413-9.733-.877-18.228-3.869-25.485s-7.549-12.811-13.671-16.663-13.465-5.778-22.029-5.778zm51.788 18.005v36.318c.034 6.775 1.605 11.894 4.712 15.356 3.118 3.451 7.652 5.176 13.602 5.176 7.188 0 12.639-2.184 16.354-6.552l.206 5.52h9.08V23.42h-9.544v40.6c-2.408 5.434-7.257 8.151-14.548 8.151-6.879 0-10.318-4.23-10.318-12.691V23.419zm61.86-13.516v13.516h-10.163v7.377h10.163v34.616c0 4.746 1.083 8.409 3.25 10.988s5.382 3.869 9.647 3.869c2.373 0 4.815-.344 7.326-1.032v-7.738c-1.926.413-3.439.619-4.54.619-2.236 0-3.818-.556-4.746-1.668-.929-1.123-1.393-2.803-1.393-5.038V30.798h10.421v-7.377h-10.421V9.905zm53.19 20.584c5.916 0 10.301 2.631 13.155 7.893v25.64c-2.786 5.434-7.205 8.151-13.258 8.151-4.609 0-8.22-1.788-10.834-5.365s-3.921-8.529-3.921-14.858c0-7.085 1.307-12.433 3.921-16.044s6.26-5.417 10.937-5.417zM526.215 0v29.096c-3.818-4.471-8.994-6.707-15.528-6.707-6.569 0-11.883 2.608-15.941 7.824-4.058 5.205-6.088 12.089-6.088 20.653v.722c0 8.529 2.035 15.442 6.105 20.739 4.081 5.296 9.355 7.945 15.821 7.945 6.81 0 12.124-2.339 15.941-7.016l.464 5.984h8.77V.001zm57.315 52.156v11.453c-1.204 2.476-3.147 4.488-5.83 6.036s-5.52 2.322-8.512 2.322c-3.13 0-5.692-.843-7.687-2.528s-2.992-4.024-2.992-7.016c0-6.844 5.847-10.266 17.54-10.266zm-11.247-29.767c-4.058 0-7.784.757-11.178 2.27-3.382 1.513-6.065 3.571-8.048 6.174-1.972 2.591-2.958 5.279-2.958 8.065h9.596c0-2.442 1.152-4.523 3.457-6.242s5.159-2.579 8.564-2.579c3.886 0 6.827.992 8.822 2.975 1.995 1.972 2.992 4.626 2.992 7.962v4.385h-9.286c-8.014 0-14.233 1.611-18.658 4.832-4.414 3.21-6.621 7.721-6.621 13.533 0 4.781 1.76 8.73 5.279 11.848 3.531 3.107 8.048 4.66 13.551 4.66 6.156 0 11.453-2.304 15.89-6.913.344 2.82.791 4.781 1.341 5.881h10.008v-.825c-1.307-3.026-1.96-7.102-1.96-12.227V40.496c-.138-5.64-2.029-10.066-5.675-13.276-3.646-3.221-8.684-4.832-15.116-4.832zM608.86 0v79.24h9.544V0zm25.64 0v79.24h9.544V0zm57.78 52.156v11.453c-1.204 2.476-3.147 4.488-5.83 6.036s-5.52 2.322-8.512 2.322c-3.13 0-5.692-.843-7.687-2.528s-2.992-4.024-2.992-7.016c0-6.844 5.847-10.266 17.54-10.266zm-11.247-29.767c-4.058 0-7.784.757-11.178 2.27-3.382 1.513-6.065 3.571-8.048 6.174-1.972 2.591-2.958 5.279-2.958 8.065h9.596c0-2.442 1.152-4.523 3.457-6.242s5.159-2.579 8.564-2.579c3.886 0 6.827.992 8.822 2.975 1.995 1.972 2.992 4.626 2.992 7.962v4.385h-9.286c-8.014 0-14.233 1.611-18.658 4.832-4.414 3.21-6.621 7.721-6.621 13.533 0 4.781 1.76 8.73 5.279 11.848 3.531 3.107 8.048 4.66 13.551 4.66 6.156 0 11.453-2.304 15.89-6.913.344 2.82.791 4.781 1.341 5.881h10.008v-.825c-1.307-3.026-1.96-7.102-1.96-12.227V40.496c-.138-5.64-2.029-10.066-5.675-13.276-3.646-3.221-8.684-4.832-15.116-4.832zm55.977.001c-6.019 0-10.966 1.582-14.841 4.746-3.864 3.164-5.795 7.033-5.795 11.607 0 2.751.676 5.124 2.029 7.119 1.364 1.995 3.462 3.714 6.294 5.159 2.843 1.444 6.678 2.683 11.504 3.714 4.838 1.032 8.226 2.264 10.163 3.697 1.949 1.422 2.923 3.422 2.923 6.002 0 2.442-1.095 4.397-3.284 5.864-2.178 1.456-5.073 2.184-8.684 2.184-3.921 0-7.079-.934-9.475-2.803-2.385-1.88-3.663-4.419-3.835-7.618h-9.544c0 3.302.969 6.374 2.906 9.217 1.949 2.832 4.643 5.038 8.082 6.621s7.394 2.373 11.866 2.373c6.363 0 11.539-1.502 15.528-4.505 3.99-3.015 5.984-7.016 5.984-12.003 0-2.992-.716-5.526-2.149-7.601-1.422-2.087-3.611-3.869-6.569-5.348s-6.821-2.751-11.59-3.818c-4.758-1.066-8.048-2.184-9.871-3.353s-2.734-2.906-2.734-5.211c0-2.442.98-4.419 2.941-5.933s4.677-2.27 8.151-2.27c3.37 0 6.162.946 8.375 2.837 2.224 1.892 3.336 4.144 3.336 6.758h9.596c0-5.09-1.972-9.269-5.916-12.536-3.932-3.267-9.063-4.901-15.391-4.901zm40.34 46.068c-1.96 0-3.433.55-4.419 1.651-.974 1.101-1.462 2.476-1.462 4.127 0 1.582.487 2.906 1.462 3.972.986 1.066 2.459 1.599 4.419 1.599s3.445-.533 4.454-1.599c1.02-1.066 1.53-2.39 1.53-3.972 0-1.651-.51-3.026-1.53-4.127-1.009-1.101-2.494-1.651-4.454-1.651zm43.7-38.227c3.99 0 7.154 1.336 9.492 4.007 2.339 2.66 3.646 6.414 3.921 11.264v.722h-27.961c.619-5.056 2.236-8.982 4.849-11.779 2.614-2.809 5.847-4.213 9.699-4.213zm0-7.841c-4.437 0-8.558 1.232-12.364 3.697-3.795 2.453-6.753 5.858-8.873 10.215-2.109 4.345-3.164 9.286-3.164 14.823v1.754c0 8.323 2.373 14.972 7.119 19.948 4.746 4.964 10.903 7.446 18.469 7.446 9.355 0 16.371-3.594 21.049-10.782l-5.83-4.54c-1.754 2.27-3.801 4.093-6.139 5.468s-5.193 2.064-8.564 2.064c-4.746 0-8.661-1.691-11.745-5.073-3.072-3.393-4.678-7.841-4.815-13.344h37.815v-3.972c0-8.908-2.012-15.752-6.036-20.532s-9.664-7.171-16.921-7.171zm56.08 8.099c5.916 0 10.301 2.631 13.155 7.893v25.64c-2.786 5.434-7.205 8.151-13.258 8.151-4.609 0-8.22-1.788-10.834-5.365s-3.921-8.529-3.921-14.858c0-7.085 1.307-12.433 3.921-16.044s6.26-5.417 10.937-5.417zM890.285 0v29.096c-3.818-4.471-8.994-6.707-15.528-6.707-6.569 0-11.883 2.608-15.941 7.824-4.058 5.205-6.088 12.089-6.088 20.653v.722c0 8.529 2.035 15.442 6.105 20.739 4.081 5.296 9.355 7.945 15.821 7.945 6.81 0 12.124-2.339 15.941-7.016l.464 5.984h8.77V.001zm24.135 23.421v36.318c.034 6.775 1.605 11.894 4.712 15.356 3.118 3.451 7.653 5.176 13.602 5.176 7.188 0 12.639-2.184 16.354-6.552l.206 5.52h9.08V23.42h-9.544v40.6c-2.408 5.434-7.257 8.151-14.548 8.151-6.879 0-10.318-4.23-10.318-12.691V23.419z"/>
		</g>
	</g>
	<defs>
		<path id="C" d="M220.55 52.156v11.453c-1.204 2.476-3.147 4.488-5.83 6.036s-5.52 2.322-8.512 2.322c-3.13 0-5.692-.843-7.687-2.528s-2.992-4.024-2.992-7.016c0-6.844 5.847-10.266 17.54-10.266zm-11.247-29.767c-4.058 0-7.784.757-11.178 2.27-3.382 1.513-6.065 3.571-8.048 6.174-1.972 2.591-2.958 5.279-2.958 8.065h9.596c0-2.442 1.152-4.523 3.457-6.242s5.159-2.579 8.564-2.579c3.886 0 6.827.992 8.822 2.975 1.995 1.972 2.992 4.626 2.992 7.962v4.385h-9.286c-8.014 0-14.233 1.611-18.658 4.832-4.414 3.21-6.621 7.721-6.621 13.533 0 4.781 1.76 8.73 5.279 11.848 3.531 3.107 8.048 4.66 13.551 4.66 6.156 0 11.453-2.304 15.89-6.913.344 2.82.791 4.781 1.341 5.881h10.008v-.825c-1.307-3.026-1.96-7.102-1.96-12.227V40.496c-.138-5.64-2.029-10.066-5.675-13.276-3.646-3.221-8.684-4.832-15.116-4.832z"/>
	</defs>
</svg>
